<svg xmlns="http://www.w3.org/2000/svg" viewBox="0 0 960 420" role="img" aria-label="抽象路径分支图"><rect width="960" height="420" rx="28" fill="#e4f1ed"/><circle cx="160" cy="210" r="64" fill="#087f7f"/><circle cx="160" cy="210" r="30" fill="#fffdf9"/><path d="M224 210H380M380 210V90H560M380 210V170H560M380 210V250H560M380 210V330H560" fill="none" stroke="#087f7f" stroke-width="12" stroke-linecap="round"/><g fill="#fffdf9" stroke="#087f7f" stroke-width="8"><rect x="560" y="40" width="250" height="100" rx="24"/><rect x="560" y="120" width="250" height="100" rx="24"/><rect x="560" y="200" width="250" height="100" rx="24"/><rect x="560" y="280" width="250" height="100" rx="24"/></g><g fill="#b4d9d1"><circle cx="620" cy="90" r="22"/><circle cx="680" cy="90" r="22"/><circle cx="740" cy="90" r="22"/><path d="M600 190h160M600 270h160M600 350h160" stroke="#b4d9d1" stroke-width="20" stroke-linecap="round"/></svg>
